{"title":"Arrow S02E09 - 720p HDTV x264 [MKV,AC3,5.1] Ehhhh","uid":9336309,"size":441836909,"categoryP":"video","categoryS":"hd___tv_shows","magnet":"?xt=urn:btih:5b7c05d2c0c702c5833b3112c90ad6f6b1543401&amp;dn=Arrow+S02E09+-+720p+HDTV+x264+%5BMKV%2CAC3%2C5.1%5D+Ehhhh&amp;tr=udp%3A%2F%2Ftracker.openbittorrent.com%3A80&amp;tr=udp%3A%2F%2Fopen.demonii.com%3A1337&amp;tr=udp%3A%2F%2Ftracker.coppersurfer.tk%3A6969&amp;tr=udp%3A%2F%2Fexodus.desync.com%3A6969","seeders":0,"leechers":0,"uploader":"mynameisurlz","files":-1,"time":1386860488,"description":"After a fight with Cyrus Gold AKA the Acolyte, Oliver is drugged and left for dead. Determined to cure him, Felicity makes a risky decision. The cure causes Oliver to hallucinate, and what he sees forces him to confront his past. Meanwhile, Barry continues to help Felicity, and their connection grows stronger. The Arrow asks Lance to look into Gold, but when the stakeout on Gold goes bad, someone is killed. Roy is captured and tortured by Brother Blood.\n\nimage\n\nGeneral\nFormat : Matroska\nFormat version : Version 4 / Version 2\nFile size : 420 MiB\nDuration : 42mn 3s\nOverall bit rate : 1 398 Kbps\nEncoded date : UTC 2013-12-12 10:55:25\nWriting application : mkvmerge v6.2.0 ('Promised Land') built on Apr 28 2013 12:22:01\nWriting library : libebml v1.3.0 + libmatroska v1.4.0\n\nVideo\nID : 1\nFormat : AVC\nFormat/Info : Advanced Video Codec\nFormat profile : &lt;a class=&quot;__cf_email__&quot; href=&quot;/cdn-cgi/l/email-protection&quot; data-cfemail=&quot;b8f0d1dfd0f8f48c9689&quot;&gt;[email&amp;#160;protected]&lt;/a&gt;&lt;script data-cfhash='f9e31' type=&quot;text/javascript&quot;&gt;\n/* &lt;![CDATA[ */!function(){try{var t=&quot;currentScript&quot;in document?document.currentScript:function(){for(var t=document.getElementsByTagName(&quot;script&quot;),e=t.length;e--;)if(t[e].getAttribute(&quot;data-cfhash&quot;))return t[e]}();if(t&amp;&amp;t.previousSibling){var e,r,n,i,c=t.previousSibling,a=c.getAttribute(&quot;data-cfemail&quot;);if(a){for(e=&quot;&quot;,r=parseInt(a.substr(0,2),16),n=2;a.length-n;n+=2)i=parseInt(a.substr(n,2),16)^r,e+=String.fromCharCode(i);e=document.createTextNode(e),c.parentNode.replaceChild(e,c)}t.parentNode.removeChild(t);}}catch(u){}}()/* ]]&gt; */&lt;/script&gt;\nFormat settings, CABAC : Yes\nFormat settings, ReFrames : 14 frames\nCodec ID : V_MPEG4/ISO/AVC\nDuration : 42mn 3s\nBit rate : 1 010 Kbps\nWidth : 1 280 pixels\nHeight : 720 pixels\nDisplay aspect ratio : 16:9\nFrame rate mode : Constant\nFrame rate : 23.976 fps\nColor space : YUV\nChroma subsampling : 4:2:0\nBit depth : 8 bits\nScan type : Progressive\nBits/(Pixel*Frame) : 0.046\nStream size : 297 MiB (71%)\nWriting library : x264 core 138 r2359+704+48 3f879a0 tMod [8-bit@all X86]\nDefault : Yes\nForced : No\n\nAudio\nID : 2\nFormat : AC-3\nFormat/Info : Audio Coding 3\nMode extension : CM (complete main)\nFormat settings, Endianness : Big\nCodec ID : A_AC3\nDuration : 42mn 3s\nBit rate mode : Constant\nBit rate : 384 Kbps\nChannel(s) : 6 channels\nChannel positions : Front: L C R, Side: L R, LFE\nSampling rate : 48.0 KHz\nBit depth : 16 bits\nCompression mode : Lossy\nStream size : 116 MiB (27%)\nDefault : Yes\nForced : No","torrent":{"xt":"urn:btih:5b7c05d2c0c702c5833b3112c90ad6f6b1543401","amp;dn":"Arrow+S02E09+-+720p+HDTV+x264+%5BMKV%2CAC3%2C5.1%5D+Ehhhh","amp;tr":["udp%3A%2F%2Ftracker.openbittorrent.com%3A80","udp%3A%2F%2Fopen.demonii.com%3A1337","udp%3A%2F%2Ftracker.coppersurfer.tk%3A6969","udp%3A%2F%2Fexodus.desync.com%3A6969"],"infoHash":"5b7c05d2c0c702c5833b3112c90ad6f6b1543401","infoHashBuffer":{"type":"Buffer","data":[91,124,5,210,192,199,2,197,131,59,49,18,201,10,214,246,177,84,52,1]},"announce":[],"urlList":[]}}